<svg xmlns="http://www.w3.org/2000/svg" width="512" height="512" viewBox="0 0 512 512">
    <g fill="none" fill-rule="evenodd">
        <g>
            <g>
                <g>
                    <circle cx="256" cy="256" r="256" fill="#FFF"/>
                    <g>
                        <g fill="#194F90">
                            <path d="M28.314 45.89c1.163 0 1.744.581 1.744 1.828s-1.329 2.577-4.069 4.074c-2.574 1.496-5.48 2.244-8.47 2.244-4.649.083-9.133-1.912-12.122-5.403C2.16 45.058.415 40.403.498 35.58c-.083-4.822 1.66-9.477 4.9-13.052 3.237-3.575 7.555-5.404 12.87-5.404 2.74-.083 5.396.665 7.721 1.995 2.242 1.33 3.405 2.66 3.405 4.074 0 .665-.25 1.33-.665 1.829-.415.499-.996.748-1.577.748-.83-.083-1.495-.499-2.076-1.08-1.993-1.913-4.65-2.993-7.39-3.077-3.238 0-6.31 1.497-8.386 3.99-2.408 2.661-3.654 6.236-3.57 9.81-.084 3.658 1.245 7.15 3.57 9.893 2.242 2.66 5.48 4.157 8.967 4.074 2.906-.083 5.646-.998 7.971-2.744.581-.332 1.329-.582 2.076-.748z" transform="translate(126 144) translate(16 158)"/>
                            <path fill-rule="nonzero" d="M40.769 2.66c.83-.083 1.66.25 2.159.915.498.665.747 1.496.664 2.327 0 .998-.332 1.996-.996 2.827-.499.831-1.412 1.413-2.408 1.413-.83.083-1.66-.332-2.16-.997-.497-.749-.746-1.663-.746-2.578 0-.997.332-1.995.996-2.826.581-.665 1.495-1.08 2.491-1.08zm1.91 33.004l.332 14.631c0 2.328-.914 3.492-2.657 3.492-1.744 0-2.657-1.164-2.657-3.492l.332-14.631-.332-14.631c0-2.328.913-3.492 2.657-3.492 1.743 0 2.657 1.164 2.657 3.492l-.332 14.63z" transform="translate(126 144) translate(16 158)"/>
                            <path d="M60.946 22.529l-.166 16.46c0 4.24.166 6.983.498 8.313.25 1.247 1.495 2.079 2.74 1.912.913-.083 1.744-.332 2.574-.748.581-.332 1.246-.582 1.993-.748.664-.083 1.328.333 1.494 1.08v.333c0 .915-.83 1.912-2.574 2.993-1.494.998-3.238 1.496-5.065 1.58-3.985 0-6.06-2.993-6.06-8.896l-.084-22.28c-1.495.167-2.574.25-3.155.167-2.325 0-3.488-.748-3.488-2.328 0-1.496 1.163-2.327 3.488-2.327.166 0 1.162.083 3.072.166l-.166-7.814c0-2.328.913-3.492 2.657-3.492s2.657 1.164 2.657 3.492l-.25 7.897 5.647-.25c2.325 0 3.487.749 3.487 2.328 0 1.497-1.162 2.245-3.487 2.245-.498.083-2.408 0-5.812-.083zM100.718 36.246l-.249-15.047c0-2.328.914-3.575 2.657-3.575 2.16 0 3.156 1.746 3.156 5.237-.166 4.49-.665 8.979-1.495 13.385.581 5.653.83 9.893.83 12.636 0 6.069-1.494 10.973-4.483 14.631C98.144 67.171 93.993 69 88.596 69c-2.823 0-5.564-.582-8.138-1.746-2.574-1.164-3.819-2.327-3.819-3.574 0-1.247.498-1.746 1.578-1.746 1.328.25 2.657.665 3.82 1.247 2.075.831 4.234 1.247 6.476 1.247 3.57.166 6.974-1.414 9.216-4.157 2.242-2.743 3.405-6.401 3.405-10.807 0-1.663-.083-3.16-.25-4.739-3.404 5.903-7.722 8.895-12.953 8.895-3.404.167-6.642-1.413-8.635-4.156-2.076-2.91-3.155-6.484-3.072-10.142l.415-10.475c0-1.746-.166-3.492-.581-5.154-.332-1.164-.498-2.245-.581-3.409 0-.748.332-1.413.83-1.912.581-.582 1.328-.914 2.159-.831 2.159 0 3.155 1.912 3.155 5.736l-.581 15.296c-.083 2.744.58 5.404 1.992 7.649 1.246 1.912 3.322 2.992 5.564 2.992 2.408 0 4.65-1.33 6.891-3.99 2.74-2.577 4.318-5.653 5.231-8.978zM121.394 37.16l.249 13.052c0 2.328-.914 3.575-2.657 3.575-2.16 0-3.156-1.663-3.156-4.905.166-4.572.582-9.228 1.412-13.717-.083-2.66-.25-5.32-.581-7.98-.416-3.41-.582-5.487-.582-6.319 0-.831.25-1.58.748-2.244.83-1.081 2.408-1.33 3.487-.416.166.166.332.25.415.416.498.582.748 1.33.748 2.161V26.686c.913-2.411 2.407-4.573 4.317-6.235 1.578-1.663 3.82-2.66 6.062-2.744 1.743-.083 3.404.333 4.815 1.247.997.582 1.578 1.58 1.661 2.744.083.83-.249 1.662-.747 2.327-.498.582-1.246.832-1.993.832-.996-.084-1.91-.582-2.657-1.247-.581-.665-1.412-1.081-2.242-1.247-1.494 0-3.321 1.662-5.314 4.904-2.076 2.91-3.321 6.319-3.985 9.893z" transform="translate(126 144) translate(16 158)"/>
                            <path fill-rule="nonzero" d="M147.466 2.66c.83-.083 1.66.25 2.159.915.498.665.747 1.496.664 2.327 0 .998-.332 1.996-.997 2.827-.498.831-1.411 1.413-2.408 1.413-.83.083-1.66-.332-2.158-.997-.499-.749-.748-1.663-.748-2.578 0-.997.332-1.995.997-2.826.664-.665 1.577-1.08 2.49-1.08zm1.992 33.004l.333 14.631c0 2.328-.914 3.492-2.657 3.492-1.744 0-2.657-1.164-2.657-3.492l.332-14.631-.332-14.548c0-2.328.913-3.492 2.657-3.492 1.743 0 2.657 1.164 2.657 3.492l-.333 14.548zM191.722 48.633c1.162 0 1.827.332 1.827 1.08 0 .998-.332 1.912-.914 2.744-.664.914-1.826 1.496-2.989 1.413-1.328 0-2.408-.748-3.155-2.245-.747-1.496-1.329-3.824-1.66-7.066-3.405 6.235-7.64 9.31-12.87 9.31-2.907.084-5.647-.997-7.806-2.909-2.076-1.829-3.653-4.156-4.65-6.733-.913-2.411-1.411-5.072-1.411-7.649-.083-4.821 1.577-9.477 4.567-13.218 2.823-3.658 7.14-5.736 11.707-5.653 3.57 0 7.058 1.247 9.881 3.409.083-6.402.166-11.14.166-14.133 0-2.993.25-4.822.664-5.57.499-.748 1.329-1.164 2.16-1.08.996 0 1.826.415 2.407 1.247.664 1.08.997 2.327.914 3.574 0 1.58-.083 3.492-.25 5.82-.166 2.327-.498 5.32-.83 9.144-.332 3.741-.664 7.233-.913 10.225-.083 4.406.166 8.896.664 13.302.498 2.992 1.329 4.738 2.491 4.988zm-7.39-11.39V26.187c-2.574-2.66-6.144-4.074-9.88-3.99-2.99 0-5.564 1.33-7.806 4.073-2.242 2.743-3.404 6.152-3.404 9.643-.083 3.326.747 6.568 2.408 9.477 1.66 2.66 3.82 3.908 6.56 3.908 4.981-.084 9.05-4.074 12.122-12.055zM216.798 17.292c3.321-.167 6.56.997 9.133 3.159 2.325 2.078 3.57 5.07 3.488 8.147.083 3.159-1.578 6.068-4.318 7.648-3.238 1.829-6.975 2.743-10.628 2.577-2.99-.083-5.895-.416-8.802-1.08.25 3.158 1.495 6.068 3.654 8.396 2.159 2.327 4.567 3.491 7.224 3.491 1.494 0 2.989-.25 4.4-.665 1.08-.332 2.076-.831 3.073-1.413 1.826-1.413 3.072-2.162 3.653-2.162.498 0 .996.167 1.412.5.332.332.498.83.498 1.246 0 1.33-1.329 2.744-3.986 4.49-2.574 1.662-5.563 2.493-8.635 2.493-4.816 0-8.635-1.662-11.459-5.07-2.823-3.492-4.483-7.732-4.566-12.221-2.491-.748-3.654-1.912-3.654-3.575 0-.582.166-1.164.581-1.663.333-.415.914-.582 1.412-.582.747.084 1.412.25 2.076.665.913-3.907 2.906-7.481 5.812-10.308 2.408-2.66 5.978-4.073 9.632-4.073zm-2.574 17.042c2.574.083 5.148-.416 7.473-1.58 1.91-1.08 2.823-2.494 2.823-4.323 0-1.745-.664-3.408-1.827-4.655-1.411-1.413-3.321-2.078-5.23-1.995-2.99-.083-5.813 1.247-7.723 3.408-2.076 2.245-3.487 5.071-4.069 8.064 2.824.748 5.647 1.164 8.553 1.08z" transform="translate(126 144) translate(16 158)"/>
                        </g>
                        <g>
                            <path fill="#194F90" d="M43.876 29.176L43.876 52.484 85.924 52.484 85.924 81.827 43.876 81.827 43.876 108.824 103.707 108.824 103.707 138 0 138 0 0 103.707 0 103.707 29.176zM184.448 107.132L194.916 63.078 212.53 63.244 195.249 136.835 231.473 81.934 216.518 137.169 152.71 137.169 115.322 0 158.858 0z" transform="translate(126 144)"/>
                            <path fill="#4CA585" d="M194.968 63.55L212.514 63.55 194.968 138 263 33.871 244.627 33.871 253.565 0 209.866 0z" transform="translate(126 144)"/>
                        </g>
                    </g>
                </g>
            </g>
        </g>
    </g>
</svg>
